<svg width="24.000000" height="24.000000" viewBox="0 0 24 24" fill="none" xmlns="http://www.w3.org/2000/svg" xmlns:xlink="http://www.w3.org/1999/xlink">
	<desc>
			Created with Pixso.
	</desc>
	<defs>
		<clipPath id="clip1_126">
			<rect id="ellipsis-horizontal-sharp" rx="0.000000" width="23.000000" height="23.000000" transform="translate(0.500000 0.500000)" fill="white" fill-opacity="0"/>
		</clipPath>
	</defs>
	<rect id="ellipsis-horizontal-sharp" rx="0.000000" width="23.000000" height="23.000000" transform="translate(0.500000 0.500000)" fill="#FFFFFF" fill-opacity="0"/>
	<g clip-path="url(#clip1_126)">
		<path id="Vector" d="M13 12C13 13.1 12.1 14 11 14C9.89 14 9 13.1 9 12C9 10.89 9.89 10 11 10C12.1 10 13 10.89 13 12Z" fill="#94A6BE" fill-opacity="1.000000" fill-rule="evenodd"/>
		<path id="Vector" d="M20 12C20 13.1 19.1 14 18 14C16.89 14 16 13.1 16 12C16 10.89 16.89 10 18 10C19.1 10 20 10.89 20 12Z" fill="#94A6BE" fill-opacity="1.000000" fill-rule="evenodd"/>
		<path id="Vector" d="M6 12C6 13.1 5.1 14 4 14C2.89 14 2 13.1 2 12C2 10.89 2.89 10 4 10C5.1 10 6 10.89 6 12Z" fill="#94A6BE" fill-opacity="1.000000" fill-rule="evenodd"/>
	</g>
</svg>
