<svg width="84.133362" height="17.184570" viewBox="0 0 84.1334 17.1846" fill="none" xmlns="http://www.w3.org/2000/svg" xmlns:xlink="http://www.w3.org/1999/xlink">
	<desc>
			Created with Pixso.
	</desc>
	<defs/>
	<path id="Vector" d="M0.09 11.6L0.41 10.86C0.63 10.36 1.03 10.23 1.52 10.6C2.48 11.3 4.05 11.82 6.14 11.82C7.93 11.82 8.69 11.36 8.69 10.82C8.69 10.2 8.06 10.04 7.02 9.91L4.65 9.6C1.79 9.22 0.35 8.19 0.35 6.4C0.35 4.47 1.92 2.95 5.56 2.95C7.58 2.95 8.88 3.26 9.73 3.58C10.67 3.95 10.8 4.25 10.8 5.02L10.8 6.02C10.8 6.63 10.58 6.84 9.98 6.84L9.31 6.84C8.69 6.84 8.49 6.62 8.49 6.02L8.49 5.69C8.09 5.56 7.11 5.37 5.97 5.37C3.96 5.37 2.99 5.74 2.99 6.35C2.99 6.81 3.58 7.07 4.65 7.22L6.98 7.53C9.79 7.88 11.29 8.73 11.29 10.79C11.29 12.88 9.31 14.21 5.78 14.21C3.18 14.21 1.1 13.39 0.26 12.63C-0.03 12.33 -0.07 11.97 0.09 11.6Z" fill="#000000" fill-opacity="1.000000" fill-rule="nonzero"/>
	<path id="Vector" d="M25.83 14.04L24.63 14.04C24.04 14.04 23.85 13.95 23.56 13.51L21.3 10.17C20.98 9.72 20.73 9.6 20.05 9.6L17.79 9.6L17.79 13.21C17.79 13.83 17.58 14.04 16.97 14.04L16.11 14.04C15.49 14.04 15.29 13.82 15.29 13.21L15.29 2.37L14.48 2.37C13.87 2.37 13.66 2.15 13.66 1.55L13.66 0.82C13.66 0.2 13.88 0 14.48 0L16.99 0C17.6 0 17.81 0.22 17.81 0.82L17.81 7.16L19.83 7.16C20.51 7.16 20.74 7.06 21.08 6.59L22.97 3.67C23.28 3.21 23.47 3.12 24.05 3.12L25.26 3.12C25.92 3.12 26.03 3.65 25.67 4.2L23.56 7.4C23.34 7.71 23.07 8.03 22.82 8.29C23.09 8.51 23.45 8.88 23.6 9.1L26.24 12.99C26.61 13.51 26.47 14.04 25.83 14.04Z" fill="#000000" fill-opacity="1.000000" fill-rule="nonzero"/>
	<path id="Vector" d="M30.12 16.03L30.12 15.31C30.12 14.7 30.34 14.49 30.94 14.49L31.98 14.49C32.61 14.49 32.92 14.36 33.15 13.86L33.28 13.58L28.3 4.14C27.99 3.56 28.24 3.14 28.89 3.14L30.02 3.14C30.6 3.14 30.87 3.24 31.09 3.67L33.17 7.96C33.65 8.94 34.19 10.07 34.62 11.05C35.06 10.1 35.56 9 36.03 8.04L38.15 3.67C38.34 3.26 38.63 3.14 39.22 3.14L40.35 3.14C41.01 3.14 41.24 3.58 40.94 4.14L35.26 14.93C34.6 16.18 33.86 16.87 32.16 16.87L30.91 16.87C30.32 16.87 30.12 16.65 30.12 16.03Z" fill="#000000" fill-opacity="1.000000" fill-rule="nonzero"/>
	<path id="Vector" d="M56.27 8.59C56.27 12.05 53.7 14.21 50.24 14.21C48.75 14.21 47.6 13.85 46.8 13.39L46.8 16.36C46.8 16.97 46.58 17.18 45.97 17.18L45.11 17.18C44.49 17.18 44.29 16.96 44.29 16.36L44.29 5.52L43.48 5.52C42.87 5.52 42.66 5.3 42.66 4.7L42.66 3.96C42.66 3.34 42.88 3.14 43.48 3.14L45.59 3.14C46.21 3.14 46.41 3.36 46.41 3.96L46.41 4.02C47.24 3.48 48.48 2.95 50.24 2.95C53.7 2.96 56.27 5.12 56.27 8.59ZM53.66 8.59C53.66 6.56 52.03 5.43 50.01 5.43C48.55 5.43 47.37 6.05 46.81 6.55L46.81 10.64C47.38 11.14 48.55 11.76 50.01 11.76C52.03 11.75 53.66 10.61 53.66 8.59Z" fill="#000000" fill-opacity="1.000000" fill-rule="nonzero"/>
	<path id="Vector" d="M69.92 7.74C69.92 8.35 69.7 8.56 69.1 8.56L68.24 8.56C67.62 8.56 67.41 8.38 67.41 7.74C67.41 6.12 66.8 5.4 65.33 5.4C63.94 5.4 62.78 6.27 62.14 7.32L62.14 13.21C62.14 13.83 61.92 14.04 61.32 14.04L60.45 14.04C59.84 14.04 59.63 13.82 59.63 13.21L59.63 5.52L58.82 5.52C58.21 5.52 58 5.3 58 4.7L58 3.96C58 3.34 58.22 3.14 58.82 3.14L60.94 3.14C61.55 3.14 61.76 3.36 61.76 3.96L61.76 4.67C62.53 3.8 63.72 2.96 65.74 2.96C68.7 2.96 69.92 4.72 69.92 7.74Z" fill="#000000" fill-opacity="1.000000" fill-rule="nonzero"/>
	<path id="Vector" d="M71.48 8.59C71.48 5.36 74.2 2.96 77.82 2.96C81.42 2.96 84.13 5.36 84.13 8.59C84.13 11.83 81.4 14.23 77.82 14.23C74.2 14.23 71.48 11.83 71.48 8.59ZM81.64 8.59C81.64 6.71 79.98 5.34 77.82 5.34C75.63 5.34 73.97 6.72 73.97 8.59C73.97 10.48 75.63 11.86 77.82 11.86C79.99 11.86 81.64 10.48 81.64 8.59Z" fill="#000000" fill-opacity="1.000000" fill-rule="nonzero"/>
</svg>
